<?xml version="1.0" encoding="UTF-8"?>
<svg width="32px" height="32px" viewBox="0 0 32 32" version="1.1" xmlns="http://www.w3.org/2000/svg" xmlns:xlink="http://www.w3.org/1999/xlink">
    <!-- Generator: Sketch 59 (86127) - https://sketch.com -->
    <title>facebook-icon</title>
    <desc>Created with Sketch.</desc>
    <g id="facebook-icon" stroke="none" stroke-width="1" fill="none" fill-rule="evenodd">
        <path d="M30.0408163,29.4143167 C30.0408163,29.7597426 29.7597426,30.0408163 29.4143167,30.0408163 L21.7427059,30.0408163 L21.7427059,19.4162707 L25.6744168,19.4162707 L26.2631355,14.8514173 L21.7427059,14.8514173 L21.7427059,11.9439441 C21.7427059,10.6255546 22.1088906,9.72711512 23.9998069,9.72711512 L26.3959916,9.72586959 L26.3959916,5.65528253 C25.9791555,5.59985662 24.5486688,5.47592677 22.8842306,5.47592677 C19.4096278,5.47592677 17.0306729,7.59685022 17.0306729,11.4922333 L17.0306729,14.8514173 L13.1139083,14.8514173 L13.1139083,19.4162707 L17.0306729,19.4162707 L17.0306729,30.0408163 L2.58568333,30.0408163 C2.24025741,30.0408163 1.95918367,29.7597426 1.95918367,29.4143167 L1.95918367,2.58589092 C1.95918367,2.240465 2.24025741,1.95918367 2.58568333,1.95918367 L29.4143167,1.95918367 C29.7597426,1.95918367 30.0408163,2.240465 30.0408163,2.58589092 L30.0408163,29.4143167 Z M29.31719,0 L2.68280996,0 C1.20353435,0 0,1.20353435 0,2.68301605 L0,29.31719 C0,30.7964656 1.20353435,32 2.68280996,32 L29.31719,32 C30.7964656,32 32,30.7964656 32,29.31719 L32,2.68301605 C32,1.20353435 30.7964656,0 29.31719,0 L29.31719,0 Z" id="Facebook_CorePurple" fill="#665A95"></path>
    </g>
</svg>