<?xml version="1.0" encoding="UTF-8"?>
<svg width="32px" height="32px" viewBox="0 0 32 32" version="1.1" xmlns="http://www.w3.org/2000/svg" xmlns:xlink="http://www.w3.org/1999/xlink">
    <!-- Generator: Sketch 63.1 (92452) - https://sketch.com -->
    <title>Instagram_Black</title>
    <desc>Created with Sketch.</desc>
    <g id="Symbols" stroke="none" stroke-width="1" fill="none" fill-rule="evenodd">
        <g id="Footer---desktop" transform="translate(-1138.000000, -24.000000)" fill="#665A95">
            <g id="Group-19">
                <path d="M1163.71381,28.0928233 C1162.82456,28.0928233 1162.10362,28.8137655 1162.10362,29.7032106 C1162.10362,30.5924535 1162.82456,31.3133957 1163.71381,31.3133957 C1164.60325,31.3133957 1165.32419,30.5924535 1165.32419,29.7032106 C1165.32419,28.8137655 1164.60325,28.0928233 1163.71381,28.0928233 Z M1154.0001,33.7992705 C1150.57542,33.7992705 1147.79927,36.5754237 1147.79927,40.0001011 C1147.79927,43.4247786 1150.57542,46.2009318 1154.0001,46.2009318 C1157.42458,46.2009318 1160.20073,43.4247786 1160.20073,40.0001011 C1160.20073,36.5754237 1157.42458,33.7992705 1154.0001,33.7992705 Z M1154.0001,47.5550246 C1149.83425,47.5550246 1146.44518,44.1659492 1146.44518,40.0001011 C1146.44518,35.8342531 1149.83425,32.4451777 1154.0001,32.4451777 C1158.16595,32.4451777 1161.55482,35.8342531 1161.55482,40.0001011 C1161.55482,44.1659492 1158.16595,47.5550246 1154.0001,47.5550246 Z M1154.0001,31.433755 C1149.27655,31.433755 1145.43375,35.2765546 1145.43375,40.0001011 C1145.43375,44.7236477 1149.27655,48.5664473 1154.0001,48.5664473 C1158.72345,48.5664473 1162.56625,44.7236477 1162.56625,40.0001011 C1162.56625,35.2765546 1158.72345,31.433755 1154.0001,31.433755 Z M1167.97715,50.9748472 C1167.97715,52.6305462 1166.63034,53.9773568 1164.97505,53.9773568 L1143.02515,53.9773568 C1141.36966,53.9773568 1140.02285,52.6305462 1140.02285,50.9748472 L1140.02285,29.0253551 C1140.02285,27.3696561 1141.36966,26.0228455 1143.02515,26.0228455 L1164.97505,26.0228455 C1166.63034,26.0228455 1167.97715,27.3696561 1167.97715,29.0253551 L1167.97715,50.9748472 Z M1143.02515,24 C1140.25406,24 1138,26.254259 1138,29.0253551 L1138,50.9748472 C1138,53.7459432 1140.25406,56.0002023 1143.02515,56.0002023 L1164.97505,56.0002023 C1167.74574,56.0002023 1170,53.7459432 1170,50.9748472 L1170,29.0253551 C1170,26.254259 1167.74574,24 1164.97505,24 L1143.02515,24 Z" id="Instagram_Black"></path>
            </g>
        </g>
    </g>
</svg>