<?xml version="1.0" encoding="UTF-8"?>
<svg width="32px" height="32px" viewBox="0 0 32 32" version="1.1" xmlns="http://www.w3.org/2000/svg" xmlns:xlink="http://www.w3.org/1999/xlink">
    <!-- Generator: Sketch 59 (86127) - https://sketch.com -->
    <title>linkedin-icon</title>
    <desc>Created with Sketch.</desc>
    <g id="linkedin-icon" stroke="none" stroke-width="1" fill="none" fill-rule="evenodd">
        <path d="M30.0408163,29.4145196 C30.0408163,29.7599481 29.7597405,30.0408163 29.4141045,30.0408163 L2.58548037,30.0408163 C2.2400519,30.0408163 1.95918367,29.7599481 1.95918367,29.4145196 L1.95918367,2.58568796 C1.95918367,2.24025949 2.2400519,1.95918367 2.58548037,1.95918367 L29.4141045,1.95918367 C29.7597405,1.95918367 30.0408163,2.24025949 30.0408163,2.58568796 L30.0408163,29.4145196 Z M29.3169667,0 L2.68262116,0 C1.2035421,0 0,1.2035421 0,2.68282724 L0,29.3173788 C0,30.7964579 1.2035421,32 2.68262116,32 L29.3169667,32 C30.7964579,32 32,30.7964579 32,29.3173788 L32,2.68282724 C32,1.2035421 30.7964579,0 29.3169667,0 Z M21.2501447,11.755102 C19.0077466,11.755102 17.5037146,12.9170374 16.8893618,14.0193556 L16.8260854,14.0193556 L16.8260854,12.1042028 L12.4081633,12.1042028 L12.4081633,26.122449 L17.0114705,26.122449 L17.0114705,19.1880475 C17.0114705,17.3591196 17.3773734,15.5886085 19.7757405,15.5886085 C22.1374961,15.5886085 22.1711448,17.6804123 22.1711448,19.3058815 L22.1711448,26.122449 L26.7755102,26.122449 L26.7755102,18.4334296 C26.7755102,14.6577398 25.9133424,11.755102 21.2501447,11.755102 Z M7.83797576,4.57142857 C6.39130217,4.57142857 5.2244898,5.7424028 5.2244898,7.18294937 C5.2244898,8.62535791 6.39130217,9.79591837 7.83797576,9.79591837 C9.27989192,9.79591837 10.4489796,8.62535791 10.4489796,7.18294937 C10.4489796,5.7424028 9.27989192,4.57142857 7.83797576,4.57142857 Z M5.2244898,26.122449 L9.79591837,26.122449 L9.79591837,11.755102 L5.2244898,11.755102 L5.2244898,26.122449 Z" id="LinkedIn_CorePurple" fill="#665A95"></path>
    </g>
</svg>