<?xml version="1.0" encoding="UTF-8"?>
<svg width="32px" height="32px" viewBox="0 0 32 32" version="1.1" xmlns="http://www.w3.org/2000/svg" xmlns:xlink="http://www.w3.org/1999/xlink">
    <!-- Generator: Sketch 59 (86127) - https://sketch.com -->
    <title>twitter-icon</title>
    <desc>Created with Sketch.</desc>
    <g id="twitter-icon" stroke="none" stroke-width="1" fill="none" fill-rule="evenodd">
        <path d="M30.0408163,29.4145196 C30.0408163,29.7599481 29.7597426,30.0408163 29.4143167,30.0408163 L2.58568333,30.0408163 C2.24025741,30.0408163 1.95918367,29.7599481 1.95918367,29.4145196 L1.95918367,2.58568796 C1.95918367,2.24025949 2.24025741,1.95918367 2.58568333,1.95918367 L29.4141091,1.95918367 C29.7597426,1.95918367 30.0408163,2.24025949 30.0408163,2.58568796 L30.0408163,29.4145196 Z M29.316984,0 L2.68280996,0 C1.20353435,0 0,1.2035421 0,2.68282724 L0,29.3173788 C0,30.7964579 1.20353435,32 2.68280996,32 L29.31719,32 C30.7964656,32 32,30.7964579 32,29.3173788 L32,2.68282724 C32,1.2035421 30.7964656,0 29.316984,0 Z M24.3296364,9.40846884 C23.6304303,9.82388637 22.8566176,10.1259707 22.0324506,10.2887584 C21.3725004,9.58382614 20.43221,9.14285714 19.3918276,9.14285714 C17.3938905,9.14285714 15.7737137,10.7672303 15.7737137,12.7695181 C15.7737137,13.0542934 15.8055706,13.3310323 15.86764,13.596438 C12.8609718,13.4449837 10.1948633,12.0017375 8.4108808,9.80719548 C8.09991703,10.3429522 7.92090219,10.9656664 7.92090219,11.6300047 C7.92090219,12.8884148 8.55968303,13.9992858 9.53080255,14.6491999 C8.93744338,14.6308606 8.37984608,14.4672487 7.89233381,14.1954552 C7.8915117,14.2104976 7.8915117,14.2257461 7.8915117,14.2416127 C7.8915117,15.9984826 9.13865524,17.4648076 10.7937717,17.7973889 C10.4900014,17.8802251 10.1702,17.9249402 9.8401221,17.9249402 C9.60705341,17.9249402 9.3803561,17.9018615 9.16023567,17.8596191 C9.62061826,19.3005986 10.9561388,20.3492394 12.5397316,20.378706 C11.3014258,21.3517227 9.74146869,21.9313702 8.04668529,21.9313702 C7.75463009,21.9313702 7.46668544,21.9146793 7.18367347,21.8810915 C8.78473612,22.9097444 10.685664,23.5102041 12.7290228,23.5102041 C19.3831954,23.5102041 23.0220676,17.9832553 23.0220676,13.1907053 C23.0220676,13.0334813 23.0187792,12.8772876 23.0117912,12.7217121 C23.7179852,12.2096523 24.3318972,11.5710715 24.8163265,10.8436787 C24.1682969,11.1323691 23.4705296,11.3270961 22.7388501,11.4146717 C23.4857386,10.9656664 24.0591616,10.2553766 24.3296364,9.40846884 L24.3296364,9.40846884 Z" id="Twitter_CorePurple" fill="#665A95"></path>
    </g>
</svg>